{"title":"Terminator Genisys {2015} V2 HDTS XVID AC3 READNFO-MRG","uid":12116375,"size":1902501797,"categoryP":"video","categoryS":"movies","magnet":"?xt=urn:btih:d3e70a11ac3ed6a195ee499420490f8edfcd0980&amp;dn=Terminator+Genisys+%7B2015%7D+V2+HDTS+XVID+AC3+READNFO-MRG&amp;tr=udp%3A%2F%2Ftracker.openbittorrent.com%3A80&amp;tr=udp%3A%2F%2Fopen.demonii.com%3A1337&amp;tr=udp%3A%2F%2Ftracker.coppersurfer.tk%3A6969&amp;tr=udp%3A%2F%2Fexodus.desync.com%3A6969","seeders":4,"leechers":1,"uploader":"makintos13","files":15,"time":1436720590,"description":"Terminator Genisys {2015} V2 HDTS XVID AC3 READNFO-MRG\n\n\nFormat : AVI\nFormat/Info : Audio Video Interleave\nFile size : 1.77 GiB\nDuration : 1h 58mn\nOverall bit rate : 2 135 Kbps\n\nVideo\nID : 0\nFormat : MPEG-4 Visual\nFormat profile : Advanced Simple@L5\nFormat settings, BVOP : 2\nFormat settings, QPel : No\nFormat settings, GMC : No warppoints\nFormat settings, Matrix : Default (H.263)\nMuxing mode : Packed bitstream\nCodec ID : DIVX\nCodec ID/Info : Project Mayo\nCodec ID/Hint : DivX 4\nDuration : 1h 58mn\nBit rate : 1 995 Kbps\nWidth : 720 pixels\nHeight : 328 pixels\nDisplay aspect ratio : 2.2:1\nFrame rate : 29.970 fps\nColor space : YUV\nChroma subsampling : 4:2:0\nBit depth : 8 bits\nScan type : Progressive\nCompression mode : Lossy\nBits/(Pixel*Frame) : 0.282\nStream size : 1.65 GiB (93%)\nWriting library : XviD 73\n\nAudio\nID : 1\nFormat : AC-3\nFormat/Info : Audio Coding 3\nMode extension : CM (complete main)\nFormat settings, Endianness : Big\nCodec ID : 2000\nDuration : 1h 58mn\nBit rate mode : Constant\nBit rate : 128 Kbps\nChannel(s) : 2 channels\nChannel positions : Front: L R\nSampling rate : 48.0 KHz\nBit depth : 16 bits\nCompression mode : Lossy\nStream size : 109 MiB (6%)\nAlignment : Aligned on interleaves\nInterleave, duration : 32 ms (0.96 video frame)\n\nscreens:\n &lt;a href=&quot;\nhttp://imgmak.com/0H&quot; rel=&quot;nofollow&quot; target=&quot;_NEW&quot;&gt;\nhttp://imgmak.com/0H&lt;/a&gt;\n &lt;a href=&quot;\nhttp://imgmak.com/0v&quot; rel=&quot;nofollow&quot; target=&quot;_NEW&quot;&gt;\nhttp://imgmak.com/0v&lt;/a&gt;\n &lt;a href=&quot;\nhttp://imgmak.com/0y&quot; rel=&quot;nofollow&quot; target=&quot;_NEW&quot;&gt;\nhttp://imgmak.com/0y&lt;/a&gt;\n &lt;a href=&quot;\nhttp://imgmak.com/06&quot; rel=&quot;nofollow&quot; target=&quot;_NEW&quot;&gt;\nhttp://imgmak.com/06&lt;/a&gt;\n &lt;a href=&quot;\nhttp://imgmak.com/09&quot; rel=&quot;nofollow&quot; target=&quot;_NEW&quot;&gt;\nhttp://imgmak.com/09&lt;/a&gt;\n &lt;a href=&quot;\nhttp://imgmak.com/0M&quot; rel=&quot;nofollow&quot; target=&quot;_NEW&quot;&gt;\nhttp://imgmak.com/0M&lt;/a&gt;\n &lt;a href=&quot;\nhttp://imgmak.com/0O&quot; rel=&quot;nofollow&quot; target=&quot;_NEW&quot;&gt;\nhttp://imgmak.com/0O&lt;/a&gt;\n &lt;a href=&quot;\nhttp://imgmak.com/0P&quot; rel=&quot;nofollow&quot; target=&quot;_NEW&quot;&gt;\nhttp://imgmak.com/0P&lt;/a&gt;\n &lt;a href=&quot;\nhttp://imgmak.com/0Y&quot; rel=&quot;nofollow&quot; target=&quot;_NEW&quot;&gt;\nhttp://imgmak.com/0Y&lt;/a&gt;\n &lt;a href=&quot;\nhttp://imgmak.com/00&quot; rel=&quot;nofollow&quot; target=&quot;_NEW&quot;&gt;\nhttp://imgmak.com/00&lt;/a&gt;","torrent":{"xt":"urn:btih:d3e70a11ac3ed6a195ee499420490f8edfcd0980","amp;dn":"Terminator+Genisys+%7B2015%7D+V2+HDTS+XVID+AC3+READNFO-MRG","amp;tr":["udp%3A%2F%2Ftracker.openbittorrent.com%3A80","udp%3A%2F%2Fopen.demonii.com%3A1337","udp%3A%2F%2Ftracker.coppersurfer.tk%3A6969","udp%3A%2F%2Fexodus.desync.com%3A6969"],"infoHash":"d3e70a11ac3ed6a195ee499420490f8edfcd0980","infoHashBuffer":{"type":"Buffer","data":[211,231,10,17,172,62,214,161,149,238,73,148,32,73,15,142,223,205,9,128]},"announce":[],"urlList":[]}}